<?xml version="1.0" encoding="utf-8"?>
<!-- Generator: Adobe Illustrator 24.2.3, SVG Export Plug-In . SVG Version: 6.00 Build 0)  -->
<svg version="1.1" id="Capa_1" xmlns="http://www.w3.org/2000/svg" xmlns:xlink="http://www.w3.org/1999/xlink" x="0px" y="0px"
	 viewBox="0 0 70 70" style="enable-background:new 0 0 70 70;" xml:space="preserve">
<style type="text/css">
	.st0{fill:#FFFFFF;}
</style>
<g id="BACKGROUND">
</g>
<g id="ELEMENTS">
</g>
<g id="TEXT">
	<g>
		<g>
			<path class="st0" d="M20.4,25.5c3.4,0,6.8,0,10.2,0c1.6,0,3,0.5,4,1.8c1.1,1.5,1.3,3.1,0.8,4.9c-0.3,1-1.1,1.6-2.1,1.9
				c-0.1,0-0.2,0.1-0.3,0.1c0.3,0.1,0.6,0.1,0.9,0.2c0.8,0.2,1.5,0.8,1.8,1.5c0.9,1.9,0.9,3.9,0,5.8c-0.7,1.5-2.1,2.2-3.6,2.6
				c-0.6,0.1-1.1,0.2-1.7,0.2c-3.2,0-6.5,0-9.7,0c-0.1,0-0.2,0-0.2,0C20.4,38.2,20.4,31.8,20.4,25.5z M24.8,41.1c0.1,0,0.1,0,0.2,0
				c1.7,0,3.3,0,5,0c1.3,0,2.1-0.6,2.2-1.7c0.1-0.5,0.1-1,0-1.5c-0.2-1.2-1-1.8-2.3-1.8c-1.6,0-3.2,0-4.9,0c-0.1,0-0.2,0-0.3,0
				C24.8,37.8,24.8,39.4,24.8,41.1z M24.8,28.9c0,1.4,0,2.8,0,4.2c1.9,0,3.7,0,5.5,0c0.6,0,1-0.4,1.2-0.9c0.2-0.7,0.3-1.4,0.1-2
				c-0.2-0.9-0.7-1.3-1.6-1.3c-1.6,0-3.2,0-4.8,0C25,28.9,24.9,28.9,24.8,28.9z"/>
			<path class="st0" d="M51,38.6c-3.3,0-6.5,0-9.8,0c-0.2,0.8,0.2,2.2,1.3,2.8c0.5,0.3,1.1,0.5,1.7,0.5c0.5,0,1.1,0,1.6-0.1
				c1-0.2,1.6-0.8,1.8-1.9c1.1,0,2.2,0,3.3,0c0,0.2,0,0.5,0,0.7c-0.2,1.8-1.3,3.1-3,3.7c-2.3,0.9-4.6,0.9-6.8,0
				c-2-0.7-3.2-2.2-3.7-4.2c-0.7-2.6-0.3-5.1,1.4-7.3c1.1-1.4,2.6-2.1,4.3-2.4c1.2-0.2,2.4-0.1,3.5,0.2c2.1,0.6,3.3,2,4,4
				c0.4,1.2,0.5,2.4,0.4,3.6c0,0.1,0,0.1,0,0.2S51,38.5,51,38.6z M41.2,36c2.1,0,4.1,0,6.2,0c0.1-1.3-0.8-2.5-2-2.8
				C43.3,32.7,41.5,34,41.2,36z"/>
			<path class="st0" d="M40.3,29c0-0.8,0-1.5,0-2.3c2.6,0,5.2,0,7.8,0c0,0.8,0,1.5,0,2.3C45.6,29,43,29,40.3,29z"/>
		</g>
		<path class="st0" d="M47.4,61.6H22.6c-7.9,0-14.2-6.4-14.2-14.2V22.6c0-7.9,6.4-14.2,14.2-14.2h24.8c7.9,0,14.2,6.4,14.2,14.2
			v24.8C61.6,55.3,55.3,61.6,47.4,61.6z M58.4,45.9V24.1c0-6.9-5.6-12.5-12.5-12.5H24.1c-6.9,0-12.5,5.6-12.5,12.5v21.8
			c0,6.9,5.6,12.5,12.5,12.5h21.8C52.8,58.4,58.4,52.8,58.4,45.9z"/>
	</g>
</g>
</svg>
