<?xml version="1.0" encoding="utf-8"?>
<!-- Generator: Adobe Illustrator 24.2.3, SVG Export Plug-In . SVG Version: 6.00 Build 0)  -->
<svg version="1.1" id="Capa_1" xmlns="http://www.w3.org/2000/svg" xmlns:xlink="http://www.w3.org/1999/xlink" x="0px" y="0px"
	 viewBox="0 0 70 70" style="enable-background:new 0 0 70 70;" xml:space="preserve">
<style type="text/css">
	.st0{fill:#FFFFFF;}
</style>
<g id="BACKGROUND">
</g>
<g id="ELEMENTS">
	<path class="st0" d="M42.3,37.9l1-6.4h-6.1v-4.2c0-1.8,0.9-3.5,3.6-3.5h2.8v-5.5c0,0-2.5-0.4-5-0.4c-5.1,0-8.4,3.1-8.4,8.6v4.9
		h-5.6v6.4h5.6v15.5h6.9V37.9H42.3z"/>
</g>
<g id="TEXT">
	<g>
		<path class="st0" d="M47.4,61.6H22.6c-7.9,0-14.2-6.4-14.2-14.2V22.6c0-7.9,6.4-14.2,14.2-14.2h24.8c7.9,0,14.2,6.4,14.2,14.2
			v24.8C61.6,55.3,55.3,61.6,47.4,61.6z M58.4,45.9V24.1c0-6.9-5.6-12.5-12.5-12.5H24.1c-6.9,0-12.5,5.6-12.5,12.5v21.8
			c0,6.9,5.6,12.5,12.5,12.5h21.8C52.8,58.4,58.4,52.8,58.4,45.9z"/>
	</g>
</g>
</svg>
