<?xml version="1.0" encoding="utf-8"?>
<!-- Generator: Adobe Illustrator 24.2.3, SVG Export Plug-In . SVG Version: 6.00 Build 0)  -->
<svg version="1.1" id="Capa_1" xmlns="http://www.w3.org/2000/svg" xmlns:xlink="http://www.w3.org/1999/xlink" x="0px" y="0px"
	 viewBox="0 0 70 70" style="enable-background:new 0 0 70 70;" xml:space="preserve">
<style type="text/css">
	.st0{fill:#FFFFFF;}
</style>
<g id="BACKGROUND">
</g>
<g id="ELEMENTS">
	<g>
		<g>
			<path class="st0" d="M49.1,18.6c-1.7,0-3.1,1.4-3.1,3.1s1.4,3.1,3.1,3.1c1.7,0,3.1-1.4,3.1-3.1C52.2,20,50.8,18.6,49.1,18.6z"/>
			<path class="st0" d="M35.2,22.7c-7.3,0-13.2,5.9-13.2,13.2C22,43.1,27.9,49,35.2,49s13.2-5.9,13.2-13.2
				C48.3,28.6,42.4,22.7,35.2,22.7z M35.2,44.2c-4.6,0-8.4-3.8-8.4-8.4s3.8-8.4,8.4-8.4s8.4,3.8,8.4,8.4S39.8,44.2,35.2,44.2z"/>
		</g>
	</g>
</g>
<g id="TEXT">
	<g>
		<path class="st0" d="M47.4,61.4H22.6c-7.9,0-14.2-6.4-14.2-14.2V22.3c0-7.9,6.4-14.2,14.2-14.2h24.8c7.9,0,14.2,6.4,14.2,14.2
			v24.8C61.6,55,55.3,61.4,47.4,61.4z M58.4,45.6V23.8c0-6.9-5.6-12.5-12.5-12.5H24.1c-6.9,0-12.5,5.6-12.5,12.5v21.8
			c0,6.9,5.6,12.5,12.5,12.5h21.8C52.8,58.1,58.4,52.5,58.4,45.6z"/>
	</g>
</g>
</svg>
