<svg width="120" height="100" viewBox="0 0 120 100" fill="none" xmlns="http://www.w3.org/2000/svg">
<path d="M37.7108 99.8545C82.9639 99.8545 107.688 61.3841 107.688 28.0597C107.688 26.9606 107.688 25.8614 107.638 24.8122C112.433 21.215 116.579 16.8184 119.876 11.7223C115.38 13.7707 110.635 15.1197 105.74 15.7192C110.885 12.5716 114.731 7.62545 116.579 1.77995C111.734 4.72768 106.489 6.77611 100.945 7.92522C97.249 3.87833 92.3542 1.23037 87.0097 0.33106C81.6653 -0.568248 76.2209 0.381023 71.4258 2.97902C66.6808 5.57703 62.8847 9.72384 60.6371 14.77C58.3894 19.8161 57.84 25.4617 59.0387 30.8576C49.2489 30.358 39.6588 27.76 30.9679 23.2135C22.2769 18.667 14.5349 12.2719 8.34138 4.47787C5.19464 10.0236 4.24562 16.6185 5.64417 22.8637C7.04271 29.1089 10.7389 34.6047 15.9335 38.152C12.0375 38.0021 8.24143 36.9529 4.79501 35.0044C4.79501 35.1043 4.79501 35.2042 4.79501 35.3042C4.79501 41.1497 6.74302 46.7953 10.3892 51.2919C13.9855 55.7884 18.9803 58.886 24.5745 60.0351C20.9783 61.0344 17.1822 61.1843 13.5359 60.4848C15.0843 65.481 18.1312 69.8776 22.2269 73.0251C26.3227 76.1727 31.2676 77.9214 36.4122 78.0213C27.7212 85.0159 16.9325 88.863 5.84397 88.813C3.89599 88.813 1.94798 88.7131 0 88.4633C11.2383 95.9575 24.3247 99.9045 37.7108 99.8545Z" fill="#4F4F4F"/>
</svg>
